<svg xmlns="http://www.w3.org/2000/svg" version="1.1" xmlns:xlink="http://www.w3.org/1999/xlink" width="512" height="512" x="0" y="0" viewBox="0 0 24 24" style="enable-background:new 0 0 512 512" xml:space="preserve"><g><path d="M22.532 16.966C20.562 14.997 16.906 14 11.998 14c-3.467.016-8.107.543-10.53 2.966A4.932 4.932 0 0 0 0 20.485L.085 21.7c0 1.266 1.027 2.296 2.356 2.296h.009l2.496-.332a2.304 2.304 0 0 0 2.3-2.264l.21-1.554c1.388-.578 2.882-.84 4.54-.847 1.643.009 3.133.288 4.547.853l.209 1.512c0 1.266 1.027 2.296 2.228 2.296h.007l2.627.34c1.269 0 2.3-1.031 2.299-2.265L24 20.451c0-1.299-.521-2.537-1.468-3.485Zm.382 4.735c0 .716-.583 1.299-1.234 1.303l-2.627-.34c-.717 0-1.3-.583-1.305-1.367l-.253-1.864a.5.5 0 0 0-.299-.393c-1.616-.689-3.314-1.03-5.193-1.04-1.88 0-3.638.342-5.207 1.044a.496.496 0 0 0-.291.389l-.253 1.864a.504.504 0 0 0-.005.067c0 .717-.583 1.3-1.365 1.304L2.386 23c-.717 0-1.3-.583-1.301-1.334L1 20.451c0-1.032.416-2.019 1.175-2.778 2.182-2.182 6.549-2.658 9.827-2.673 4.752.018 8.026.877 9.823 2.673.759.76 1.176 1.746 1.176 2.744l-.087 1.284ZM20.853 2.146a.5.5 0 0 0-.707 0l-6.312 6.312a1.868 1.868 0 0 1-1.33.551c-.504 0-.977-.197-1.332-.554L4.736 2H9.5a.5.5 0 0 0 0-1h-5C3.673 1 3 1.673 3 2.5v5a.5.5 0 0 0 1 0V2.679l6.462 6.483a2.868 2.868 0 0 0 2.04.848h.002c.77 0 1.493-.3 2.037-.844l6.312-6.312a.5.5 0 0 0 0-.707Z" fill="#ff5050" opacity="1" data-original="#000000"></path></g></svg>