<svg xmlns="http://www.w3.org/2000/svg" version="1.1" xmlns:xlink="http://www.w3.org/1999/xlink" width="512" height="512" x="0" y="0" viewBox="0 0 24 24" style="enable-background:new 0 0 512 512" xml:space="preserve"><g><path d="M15 7V2.5a.5.5 0 0 1 1 0V7c0 .097.014.191.04.28L23.146.147a.5.5 0 1 1 .709.707l-7.091 7.119c.076.018.155.028.236.028h4.5a.5.5 0 0 1 0 1H17c-1.103 0-2-.897-2-2Zm8.163 10.298c.557.551.837 1.227.837 1.945s-.28 1.395-.788 1.902l-.978 1.125c-1.121 1.124-2.608 1.729-4.211 1.729C10.275 24 0 13.725 0 5.976c0-1.603.605-3.09 1.705-4.187L2.879.765c.967-.97 2.763-.993 3.78.023l1.959 2.543c1.006 1 1.006 2.707-.043 3.756L7.087 8.612c1.617 3.803 4.614 6.804 8.295 8.303l1.532-1.494a2.692 2.692 0 0 1 3.802.003l2.446 1.873Zm-.658.75-2.446-1.873c-.736-.725-1.801-.682-2.439-.043 0 .002-1.771 1.727-1.771 1.727a.494.494 0 0 1-.527.108c-4.172-1.593-7.557-4.975-9.285-9.28a.501.501 0 0 1 .106-.536l1.722-1.766a1.694 1.694 0 0 0 .004-2.396L5.91 1.446A1.605 1.605 0 0 0 4.777.994c-.436 0-.879.165-1.215.5L2.387 2.519C1.501 3.404 1 4.64 1 5.975c0 7.16 9.864 17.024 17.023 17.024 1.335 0 2.571-.501 3.48-1.411l.978-1.125c.683-.685.683-1.757.023-2.416Z" fill="#00ef29" opacity="1" data-original="#000000"></path></g></svg>