<svg xmlns="http://www.w3.org/2000/svg" version="1.1" xmlns:xlink="http://www.w3.org/1999/xlink" width="512" height="512" x="0" y="0" viewBox="0 0 24 24" style="enable-background:new 0 0 512 512" xml:space="preserve"><g><path d="M12 0C5.383 0 0 5.383 0 12s5.383 12 12 12 12-5.383 12-12S18.617 0 12 0zm0 23C5.935 23 1 18.065 1 12S5.935 1 12 1s11 4.935 11 11-4.935 11-11 11z" fill="#ffc857" opacity="1" data-original="#000000"></path><path d="M16 10.5a.5.5 0 0 0-.5-.5h-7a.5.5 0 0 0-.5.5v3a.5.5 0 0 0 .5.5h7a.5.5 0 0 0 .5-.5v-3zm-1 2.5h-6v-2h6v2z" fill="#ffc857" opacity="1" data-original="#000000"></path><path d="M12 5c-3.86 0-7 3.14-7 7s3.14 7 7 7 7-3.14 7-7-3.14-7-7-7zm0 13c-3.309 0-6-2.691-6-6s2.691-6 6-6 6 2.691 6 6-2.691 6-6 6z" fill="#ffc857" opacity="1" data-original="#000000"></path><circle cx="12" cy="12" r="2" fill="#ffc857" opacity="1" data-original="#000000"></circle></g></svg>