<svg xmlns="http://www.w3.org/2000/svg" version="1.1" xmlns:xlink="http://www.w3.org/1999/xlink" width="512" height="512" x="0" y="0" viewBox="0 0 24 24" style="enable-background:new 0 0 512 512" xml:space="preserve"><g><path d="M24 2v4.5a.5.5 0 0 1-1 0V2a1.01 1.01 0 0 0-.034-.259l-7.112 7.112a.498.498 0 0 1-.708 0 .5.5 0 0 1 0-.707l7.112-7.112A1.005 1.005 0 0 0 21.999 1h-4.5a.5.5 0 0 1 0-1h4.5c1.103 0 2 .897 2 2Zm-.837 15.298c1.098 1.092 1.098 2.799.049 3.848l-.978 1.125C21.113 23.395 19.626 24 18.023 24 10.275 24 0 13.725 0 5.976c0-1.603.605-3.089 1.704-4.187L2.88.765c.965-.97 2.764-.993 3.779.023l1.959 2.543c1.006 1 1.006 2.707-.043 3.756L7.088 8.612c1.617 3.803 4.614 6.804 8.295 8.303l1.532-1.494c1.017-1.014 2.787-1.013 3.802.003l2.446 1.873Zm-.658.75-2.446-1.873c-.736-.725-1.801-.682-2.439-.043 0 .002-1.771 1.727-1.771 1.727a.493.493 0 0 1-.527.108c-4.172-1.593-7.556-4.975-9.285-9.28a.503.503 0 0 1 .105-.536l1.722-1.766a1.694 1.694 0 0 0 .005-2.396L5.91 1.446A1.605 1.605 0 0 0 4.777.994c-.436 0-.879.165-1.215.5L2.386 2.519C1.501 3.404 1 4.64 1 5.975c0 7.16 9.864 17.024 17.023 17.024 1.335 0 2.571-.501 3.48-1.411l.978-1.125c.683-.685.683-1.757.023-2.416Z" fill="#3189ff" opacity="1" data-original="#000000"></path></g></svg>