<svg xmlns="http://www.w3.org/2000/svg" version="1.1" xmlns:xlink="http://www.w3.org/1999/xlink" width="512" height="512" x="0" y="0" viewBox="0 0 24 24" style="enable-background:new 0 0 512 512" xml:space="preserve"><g><path d="M20.717 15.424c-1.01-1.011-2.769-1.017-3.789-.016l-1.805 1.518c-3.722-1.498-6.427-4.205-8.046-8.053l1.498-1.785c1.049-1.049 1.049-2.756.043-3.756L6.659.789C5.643-.228 3.845-.204 2.88.766L1.704 1.79C.605 2.887 0 4.374 0 5.976 0 13.725 10.275 24 18.023 24c1.604 0 3.091-.605 4.211-1.73l.978-1.125c1.049-1.049 1.049-2.756-.049-3.848l-2.446-1.874Zm1.765 5.04-.978 1.125c-.909.91-2.145 1.411-3.48 1.411C10.864 23 1 13.136 1 5.976c0-1.335.501-2.571 1.386-3.456l1.176-1.025c.336-.336.779-.5 1.215-.5a1.6 1.6 0 0 1 1.133.452L7.869 3.99c.659.659.659 1.732-.029 2.423L6.118 8.462a.5.5 0 0 0-.081.508c1.751 4.358 4.779 7.386 9.002 8.998a.5.5 0 0 0 .5-.084s2.071-1.741 2.081-1.751c.639-.639 1.703-.682 2.439.043l2.446 1.874c.659.659.659 1.731-.023 2.416ZM17.001 4.5v2.793l1.854 1.854a.5.5 0 0 1-.708.707l-2-2a.5.5 0 0 1-.146-.354v-3a.5.5 0 0 1 1 0Zm-6.393-1.64A7.463 7.463 0 0 1 16.501 0c4.136 0 7.5 3.364 7.5 7.5a7.466 7.466 0 0 1-2.86 5.893.5.5 0 0 1-.62-.785A6.466 6.466 0 0 0 23 7.501c0-3.584-2.916-6.5-6.5-6.5a6.465 6.465 0 0 0-5.107 2.479.5.5 0 1 1-.785-.619Z" fill="#ffc857" opacity="1" data-original="#000000"></path></g></svg>